<svg width="88" height="86" viewBox="0 0 88 86" fill="none" xmlns="http://www.w3.org/2000/svg">
<g id="bootstrap-fill_svgrepo.com">
<path id="Vector" fill-rule="evenodd" clip-rule="evenodd" d="M18.2779 7.33325C13.2567 7.33325 9.54129 11.728 9.70761 16.4942C9.86718 21.0732 9.65987 27.0035 8.16684 31.8397C6.66937 36.6901 4.13673 39.7627 0 40.1572V44.6108C4.13673 45.0053 6.66937 48.078 8.16684 52.9286C9.65987 57.7646 9.86718 63.695 9.70761 68.274C9.54129 73.0395 13.2567 77.4348 18.2786 77.4348H69.7286C74.7501 77.4348 78.4648 73.0403 78.2984 68.274C78.1389 63.695 78.346 57.7646 79.8391 52.9286C81.3373 48.078 83.8633 45.0053 88 44.6108V40.1572C83.8633 39.7627 81.3373 36.6901 79.8391 31.8397C78.346 27.0042 78.1389 21.0732 78.2984 16.4942C78.4648 11.7288 74.7501 7.33325 69.7286 7.33325H18.2779ZM59.6611 50.4851C59.6611 57.0481 54.7657 61.0283 46.6422 61.0283H32.8136C32.418 61.0283 32.0386 60.871 31.7589 60.5912C31.4792 60.3115 31.322 59.9323 31.322 59.5367V25.2316C31.322 24.836 31.4792 24.4566 31.7589 24.1769C32.0386 23.8972 32.418 23.74 32.8136 23.74H46.5634C53.3368 23.74 57.7823 27.4092 57.7823 33.0427C57.7823 36.9966 54.7921 40.5368 50.9817 41.1564V41.3632C56.1686 41.9323 59.6611 45.5238 59.6611 50.4851ZM45.1345 28.4682H37.2493V39.6054H43.8904C49.0241 39.6054 51.8551 37.5382 51.8551 33.8429C51.8551 30.3803 49.4208 28.4682 45.1345 28.4682ZM37.2493 44.0248V56.2987H45.4245C50.7694 56.2987 53.6008 54.1536 53.6008 50.1229C53.6008 46.0914 50.6902 44.0241 45.0806 44.0241L37.2493 44.0248Z" fill="black"/>
</g>
</svg>
