<svg width="61" height="60" viewBox="0 0 61 60" fill="none" xmlns="http://www.w3.org/2000/svg">
<g id="cinema-film-movie_svgrepo.com" clip-path="url(#clip0_1519_30)">
<path id="Vector" d="M58.856 22.5C57.731 22.5 56.981 23.25 56.981 24.375C56.981 35.25 50.231 44.625 40.856 48.5625C46.106 44.0625 49.481 37.5 49.481 30C49.481 16.5 38.606 5.625 25.106 5.625C11.606 5.625 0.730988 16.5 0.730988 30C0.730988 43.5 11.606 54.375 25.106 54.375H30.731C47.231 54.375 60.731 40.875 60.731 24.375C60.731 23.25 59.981 22.5 58.856 22.5ZM11.7935 16.6875C13.856 14.4375 17.606 14.4375 19.6685 16.6875C20.7935 17.625 21.356 19.125 21.356 20.625C21.356 22.125 20.7935 23.625 19.6685 24.5625C18.731 25.6875 17.231 26.25 15.731 26.25C14.231 26.25 12.731 25.6875 11.7935 24.5625C10.6685 23.625 10.106 22.125 10.106 20.625C10.106 19.125 10.6685 17.625 11.7935 16.6875ZM19.6685 43.3125C18.731 44.4375 17.231 45 15.731 45C14.231 45 12.731 44.4375 11.7935 43.3125C10.6685 42.375 10.106 40.875 10.106 39.375C10.106 37.875 10.6685 36.375 11.7935 35.4375C13.856 33.375 17.606 33.375 19.6685 35.4375C20.7935 36.5625 21.356 37.875 21.356 39.375C21.356 40.875 20.7935 42.375 19.6685 43.3125ZM21.1685 33.9375C20.0435 33 19.481 31.5 19.481 30C19.481 28.5 20.0435 27 21.1685 26.0625C23.231 24 26.981 24 29.0435 26.0625C30.1685 27.1875 30.731 28.5 30.731 30C30.731 31.5 30.1685 33 29.0435 33.9375C28.106 35.0625 26.606 35.625 25.106 35.625C23.606 35.625 22.106 35.0625 21.1685 33.9375ZM38.4185 43.3125C37.481 44.4375 35.981 45 34.481 45C32.981 45 31.481 44.4375 30.5435 43.3125C29.4185 42.375 28.856 40.875 28.856 39.375C28.856 37.875 29.4185 36.375 30.5435 35.4375C32.606 33.375 36.356 33.375 38.4185 35.4375C39.5435 36.5625 40.106 37.875 40.106 39.375C40.106 40.875 39.5435 42.375 38.4185 43.3125ZM38.4185 24.5625C37.481 25.6875 35.981 26.25 34.481 26.25C32.981 26.25 31.481 25.6875 30.5435 24.5625C29.4185 23.625 28.856 22.125 28.856 20.625C28.856 19.125 29.4185 17.625 30.5435 16.6875C32.606 14.625 36.356 14.625 38.4185 16.6875C39.5435 17.625 40.106 19.125 40.106 20.625C40.106 22.125 39.5435 23.625 38.4185 24.5625Z" fill="black"/>
</g>
<defs>
<clipPath id="clip0_1519_30">
<rect width="60" height="60" fill="white" transform="translate(0.730988)"/>
</clipPath>
</defs>
</svg>
