<svg width="43" height="17" viewBox="0 0 43 17" fill="none" xmlns="http://www.w3.org/2000/svg">
<path fill-rule="evenodd" clip-rule="evenodd" d="M0.0822492 16.213C0.159015 16.3051 0.274164 16.3511 0.427696 16.3511H5.67848C7.2138 16.3511 8.45741 16.1285 9.40931 15.6833C9.56246 15.6103 9.71061 15.5316 9.85375 15.4472C10.2236 15.77 10.657 16.0252 11.154 16.213C11.8602 16.4586 12.6586 16.5814 13.5491 16.5814C15.3454 16.5814 16.8731 16.0671 18.132 15.0384C18.6999 14.5801 19.193 14.0073 19.6115 13.3203L19.0495 15.9683C19.0188 16.1218 19.0419 16.2447 19.1186 16.3368C19.2108 16.4289 19.3336 16.4749 19.4871 16.4749H19.9247C20.0782 16.4749 20.2087 16.4289 20.3162 16.3368C20.4237 16.2447 20.4927 16.1218 20.5234 15.9683L23.2179 3.25589L25.8894 12.1454C25.9354 12.2989 26.0045 12.414 26.0966 12.4908C26.1888 12.5676 26.3269 12.606 26.5112 12.606H26.9948C27.179 12.606 27.3326 12.5676 27.4554 12.4908C27.5782 12.3987 27.6934 12.2835 27.8008 12.1454L33.8346 3.85466L31.2553 15.9683C31.2246 16.1218 31.2476 16.2447 31.3244 16.3368C31.4012 16.4289 31.5163 16.4749 31.6698 16.4749H32.1074C32.1809 16.4749 32.2402 16.4741 32.2881 16.4725C32.3047 16.4741 32.3234 16.4749 32.3445 16.4749H32.8951H41.7846C41.9535 16.4749 42.0916 16.4289 42.1991 16.3368C42.3066 16.2447 42.3757 16.1218 42.4064 15.9683L42.4755 15.6229C42.5062 15.454 42.4831 15.3235 42.4064 15.2313C42.345 15.1392 42.2298 15.0932 42.0609 15.0932H34.1157L37.1556 0.8608C37.1863 0.707268 37.1633 0.584443 37.0865 0.492325C37.0097 0.400205 36.8946 0.354145 36.7411 0.354145H36.3035C36.2809 0.354145 36.2512 0.353384 36.2172 0.352512C36.1404 0.350543 36.0417 0.348012 35.9532 0.352406C35.9483 0.35122 35.9431 0.350621 35.9374 0.350648C35.759 0.354145 35.6847 0.354145 35.5159 0.354145H35.5158H34.9401C34.7865 0.354145 34.6637 0.392528 34.5716 0.469294C34.4948 0.54606 34.4411 0.607473 34.4104 0.653532L26.9948 10.8327L23.9319 0.653532C23.9165 0.607473 23.8781 0.54606 23.8167 0.469294C23.7553 0.392528 23.6478 0.354145 23.4943 0.354145H22.8955C22.742 0.354145 22.6038 0.400205 22.481 0.492325C22.3582 0.584443 22.2814 0.714945 22.2507 0.883829L21.7043 3.4586C21.5589 2.70985 21.274 2.08667 20.8495 1.58905C20.4196 1.05169 19.8592 0.65251 19.1684 0.391506C18.4775 0.130502 17.6791 0 16.7733 0C15.1157 0 13.683 0.436984 12.4753 1.31095C12.1173 1.03296 11.6941 0.810921 11.2056 0.644833C10.4533 0.368476 9.55516 0.230297 8.51115 0.230297H3.8361C3.68257 0.230297 3.54439 0.276357 3.42157 0.368477C3.31409 0.460596 3.245 0.591097 3.2143 0.759982L0.0131599 15.8445C-0.0175465 15.998 0.00548327 16.1208 0.0822492 16.213ZM11.4071 2.28974C10.7418 1.83797 9.72272 1.61208 8.34994 1.61208H4.50397L1.64827 14.9694H5.60939C6.83765 14.9694 7.84328 14.8081 8.62629 14.4857C8.74936 14.4326 8.86845 14.3748 8.98355 14.3122C8.80038 13.941 8.66408 13.5229 8.57466 13.0579C8.43648 12.2595 8.46718 11.3153 8.66678 10.2252C8.7896 9.53432 8.91243 8.88949 9.03525 8.29072C9.17343 7.69194 9.32696 7.04711 9.49585 6.35622C9.89705 4.65415 10.5341 3.29866 11.4071 2.28974ZM10.1836 13.3217C9.91196 12.5347 9.89764 11.4641 10.1407 10.1101C10.2635 9.41918 10.3787 8.81273 10.4861 8.29072C10.609 7.76871 10.7548 7.16226 10.9237 6.47137C11.2354 5.21366 11.6902 4.20056 12.2879 3.43207C12.5847 4.20681 12.6078 5.25061 12.3571 6.56348C12.265 7.02408 12.1806 7.42326 12.1038 7.76103C12.0424 8.0988 11.9733 8.44425 11.8965 8.79737C11.8198 9.13514 11.7276 9.53432 11.6202 9.99492C11.3438 11.1925 10.9677 12.1597 10.4917 12.8967C10.396 13.0466 10.2933 13.1883 10.1836 13.3217ZM11.0272 14.5095C11.281 14.2392 11.5094 13.9396 11.7123 13.6106C12.2804 12.6894 12.7256 11.5226 13.048 10.1101C13.2169 9.41918 13.3551 8.81273 13.4625 8.29072L13.831 6.44834C14.0306 5.45038 14.0613 4.56757 13.9231 3.79991C13.8286 3.26418 13.6586 2.78953 13.4131 2.37598C14.3802 1.71319 15.5003 1.38179 16.7733 1.38179C18.1857 1.38179 19.1837 1.78097 19.7671 2.57933C20.3659 3.3777 20.5041 4.67504 20.1817 6.47137C20.0588 7.16226 19.936 7.76871 19.8132 8.29072C19.7057 8.81273 19.5675 9.41918 19.3986 10.1101C18.9688 11.9064 18.2241 13.2037 17.1648 14.0021C16.1207 14.8005 14.9155 15.1996 13.5491 15.1996C12.4651 15.1996 11.6245 14.9696 11.0272 14.5095Z" fill="black"/>
</svg>
