<svg width="70" height="71" viewBox="0 0 70 71" fill="none" xmlns="http://www.w3.org/2000/svg">
<g id="github-142_svgrepo.com" clip-path="url(#clip0_1525_78)">
<g id="Page-1">
<g id="Dribbble-Light-Preview">
<g id="icons">
<path id="github-[#142]" fill-rule="evenodd" clip-rule="evenodd" d="M35 0.5C54.3305 0.5 70 16.5648 70 36.3853C70 52.2368 59.983 65.6838 46.0845 70.4333C44.31 70.7868 43.68 69.6662 43.68 68.7107C43.68 67.5277 43.722 63.6638 43.722 58.8618C43.722 55.5158 42.602 53.332 41.3455 52.219C49.14 51.33 57.33 48.2952 57.33 34.5122C57.33 30.5922 55.972 27.3934 53.725 24.8804C54.089 23.9739 55.2895 20.3238 53.382 15.3818C53.382 15.3818 50.449 14.4203 43.7675 19.0613C40.971 18.2668 37.975 17.867 35 17.853C32.025 17.867 29.0325 18.2668 26.2395 19.0613C19.551 14.4203 16.611 15.3818 16.611 15.3818C14.7105 20.3238 15.911 23.9739 16.2715 24.8804C14.035 27.3934 12.6665 30.5922 12.6665 34.5122C12.6665 48.2602 20.839 51.3415 28.6125 52.248C27.6115 53.144 26.705 54.7247 26.39 57.0452C24.395 57.9622 19.327 59.5492 16.205 54.0647C16.205 54.0647 14.3535 50.6167 10.8395 50.3647C10.8395 50.3647 7.427 50.3194 10.6015 52.5454C10.6015 52.5454 12.894 53.6479 14.4865 57.7954C14.4865 57.7954 16.541 64.2003 26.278 62.0303C26.2955 65.0298 26.327 67.8567 26.327 68.7107C26.327 69.6592 25.683 70.7693 23.9365 70.4368C10.0275 65.6943 0 52.2402 0 36.3853C0 16.5648 15.673 0.5 35 0.5Z" fill="black"/>
</g>
</g>
</g>
</g>
<defs>
<clipPath id="clip0_1525_78">
<rect width="70" height="70" fill="white" transform="translate(0 0.5)"/>
</clipPath>
</defs>
</svg>
