<svg width="88" height="86" viewBox="0 0 88 86" fill="none" xmlns="http://www.w3.org/2000/svg">
<g id="javascript-155_svgrepo.com" clip-path="url(#clip0_1525_100)">
<g id="Page-1">
<g id="Dribbble-Light-Preview">
<g id="icons">
<path id="javascript-[#155]" fill-rule="evenodd" clip-rule="evenodd" d="M67.4432 81.1014C59.7652 81.1014 54.802 77.4409 52.382 72.6537L59.114 68.7543C60.8872 71.6495 63.1884 73.7752 67.2672 73.7752C70.6904 73.7752 72.8772 72.0624 72.8772 69.6996C72.8772 66.1444 68.134 64.7553 64.7856 63.3209C58.8192 60.7821 54.8591 57.5921 54.8591 50.8557C54.8591 44.6561 59.5848 39.9309 66.9724 39.9309C72.226 39.9309 76.01 41.761 78.7248 46.5438L72.2875 50.6795C70.8707 48.1407 69.3352 47.1367 66.9724 47.1367C64.548 47.1367 63.0125 48.6731 63.0125 50.6795C63.0125 53.1611 64.5481 54.1648 68.0945 55.7004C75.5261 58.886 81.1492 61.3886 81.1492 69.5814C81.1492 77.0262 75.3016 81.1014 67.4432 81.1014ZM48.4 68.6361C48.4 77.2029 43.1243 81.7309 35.7983 81.7309C29.1807 81.7309 25.2164 79.2 23.2672 74.8H23.2012H23.1704H23.1528L29.8803 70.0971C31.1783 72.3983 32.3488 74.0309 35.1824 74.0309C37.9016 74.0309 39.6 72.6539 39.6 68.5223V39.6H48.4V68.6361ZM0 88H88V0H0V88Z" fill="black"/>
</g>
</g>
</g>
</g>
<defs>
<clipPath id="clip0_1525_100">
<rect width="88" height="88" fill="white"/>
</clipPath>
</defs>
</svg>
