<svg width="70" height="71" viewBox="0 0 70 71" fill="none" xmlns="http://www.w3.org/2000/svg">
<g id="linkedin_svgrepo.com" clip-path="url(#clip0_1525_83)">
<path id="Vector" d="M64.1993 1.02623H6.45062C5.70629 0.991364 4.96235 1.10361 4.26145 1.35661C3.56055 1.6096 2.91645 1.99833 2.36595 2.50051C1.8155 3.00274 1.36947 3.6086 1.05348 4.28337C0.737483 4.95819 0.557661 5.68867 0.524353 6.43304V64.3076C0.567957 65.8652 1.20635 67.3476 2.30842 68.4493C3.41049 69.5514 4.89266 70.1898 6.45062 70.2335H64.1993C65.7137 70.166 67.1417 69.5077 68.1768 68.3999C69.212 67.2922 69.7717 65.8233 69.7362 64.3076V6.43304C69.7488 5.70852 69.613 4.98916 69.3374 4.31897C69.0619 3.64883 68.6522 3.04201 68.1336 2.53572C67.6153 2.02947 66.9989 1.63447 66.3224 1.3749C65.6458 1.11533 64.9234 0.996684 64.1993 1.02623ZM22.1531 58.7278H12.0741V27.8874H22.1531V58.7278ZM17.3515 23.2158C16.6482 23.2403 15.9474 23.1191 15.2931 22.8598C14.6389 22.6006 14.0453 22.2088 13.5497 21.7092C13.0541 21.2095 12.6672 20.6128 12.4133 19.9565C12.1593 19.3002 12.0439 18.5985 12.0741 17.8955C12.043 17.1848 12.1608 16.4755 12.4199 15.8131C12.6791 15.1506 13.0739 14.5496 13.5789 14.0487C14.084 13.5477 14.6881 13.1579 15.3527 12.9041C16.0173 12.6503 16.7276 12.5383 17.438 12.5752C18.1413 12.5507 18.8421 12.6718 19.4964 12.9311C20.1506 13.1904 20.7442 13.5821 21.2398 14.0818C21.7354 14.5814 22.1223 15.1781 22.3762 15.8344C22.6302 16.4907 22.7457 17.1924 22.7154 17.8955C22.7465 18.6061 22.6287 19.3154 22.3696 19.9779C22.1104 20.6404 21.7157 21.2413 21.2106 21.7423C20.7055 22.2432 20.1014 22.6331 19.4368 22.8868C18.7722 23.1406 18.0619 23.2526 17.3515 23.2158ZM58.2298 58.7278H48.1075V41.8586C48.1075 37.8359 46.68 35.0676 43.0897 35.0676C41.9745 35.0771 40.8892 35.4314 39.9833 36.0819C39.0771 36.7325 38.3945 37.6473 38.0285 38.701C37.7474 39.4908 37.6297 40.3295 37.6825 41.1665V58.7278H27.7333V27.8874H37.6825V32.2128C38.5671 30.5878 39.8834 29.2391 41.4865 28.3152C43.0897 27.3917 44.9169 26.9292 46.7665 26.9789C53.2984 26.9789 58.2298 31.3045 58.2298 40.5177V58.7278Z" fill="black"/>
</g>
<defs>
<clipPath id="clip0_1525_83">
<rect width="70" height="70" fill="white" transform="translate(0 0.5)"/>
</clipPath>
</defs>
</svg>
