<svg width="61" height="60" viewBox="0 0 61 60" fill="none" xmlns="http://www.w3.org/2000/svg">
<g id="books_svgrepo.com">
<path id="Vector" d="M58.1791 49.4269L46.5335 5.95879C45.8135 3.33754 43.451 1.44379 40.6479 1.44379C40.0872 1.44379 39.5435 1.51879 39.0279 1.66129L39.071 1.65192L33.641 3.10692C33.2097 3.22879 32.8366 3.37879 32.4822 3.56254L32.516 3.54754C31.4022 2.23879 29.756 1.41004 27.9166 1.40442H22.2935C20.8685 1.41004 19.5616 1.91067 18.5322 2.74129L18.5435 2.73192C17.5254 1.91067 16.2185 1.41004 14.7954 1.40442H9.16849C5.80474 1.40817 3.07849 4.13442 3.07474 7.49817V52.4982C3.07849 55.8619 5.80474 58.5882 9.16849 58.5919H14.7935C16.2185 58.5863 17.5254 58.0875 18.5547 57.2569L18.5435 57.2663C19.5616 58.0875 20.8685 58.5863 22.2916 58.5938H27.9147C31.2785 58.59 34.0047 55.8638 34.0085 52.5V28.0257L40.9779 54.0375C41.6941 56.6588 44.0547 58.5525 46.8579 58.5525C47.4204 58.5525 47.9641 58.4757 48.4816 58.3332L48.4385 58.3425L53.8722 56.8894C56.4935 56.1657 58.3854 53.8032 58.3854 51C58.3854 50.4413 58.3104 49.8994 58.1697 49.3838L58.1791 49.4269ZM36.4047 18.8644L44.5535 16.68L51.1047 41.1338L42.9579 43.3163L36.4047 18.8644ZM34.8541 7.63504L40.2822 6.18192C40.3872 6.15379 40.5091 6.13879 40.6347 6.13879C41.2835 6.13879 41.8329 6.57192 42.0054 7.16442L42.0072 7.17379L43.3422 12.1538L35.1935 14.3382L34.0085 9.91879V8.32879C34.1847 7.99317 34.4847 7.74379 34.8447 7.63504H34.8541ZM22.2935 6.09379H27.9147C28.6872 6.10504 29.3097 6.72754 29.321 7.49817V12.6544L20.8872 12.6563V7.50004C20.8985 6.72754 21.521 6.10504 22.2916 6.09379H22.2935ZM16.1997 42.6563H7.76224V17.3438L16.1997 17.3419V42.6563ZM20.8872 17.3438L29.321 17.3419V42.6563H20.8872V17.3438ZM9.16849 6.09379H14.7935C15.566 6.10504 16.1885 6.72754 16.1997 7.49817V12.6544L7.76224 12.6563V7.50004C7.77349 6.72754 8.39786 6.10504 9.16849 6.09379ZM14.7935 53.9063H9.16849C8.39599 53.895 7.77349 53.2725 7.76224 52.5019V47.3438H16.1997V52.5C16.1885 53.2725 15.5641 53.895 14.7935 53.9063ZM27.9147 53.9063H22.2935C21.521 53.895 20.8985 53.2725 20.8872 52.5019V47.3438H29.321V52.5C29.3097 53.2725 28.6854 53.895 27.9147 53.9063ZM52.6554 52.365L47.2254 53.8182C47.1185 53.8463 46.9966 53.8632 46.871 53.8632C46.6104 53.8632 46.3666 53.7938 46.1566 53.6719L46.1641 53.6757C45.8435 53.49 45.6054 53.19 45.5079 52.8319L45.506 52.8225L44.1729 47.8444L52.3197 45.6619L53.6547 50.6438C53.6829 50.7488 53.6979 50.8688 53.6979 50.9925C53.6979 51.6432 53.2629 52.1907 52.6685 52.3613L52.6591 52.3632L52.6554 52.365Z" fill="black"/>
</g>
</svg>
