<svg width="61" height="60" viewBox="0 0 61 60" fill="none" xmlns="http://www.w3.org/2000/svg">
<g id="music-1005_svgrepo.com" clip-path="url(#clip0_1519_9)">
<g id="Page-1">
<g id="Dribbble-Light-Preview">
<g id="icons">
<path id="music-[#1005]" fill-rule="evenodd" clip-rule="evenodd" d="M60.731 6.15381V34.6772C60.731 41.7296 55.2593 47.8648 48.3951 47.6895C40.5305 47.4864 34.4779 39.4986 37.4338 30.9478C39.063 26.2339 43.6242 23.1541 48.4939 23.0771C50.8179 23.0433 51.6595 23.646 54.7412 24.7229V15.3845C54.7412 13.6861 53.3995 12.3076 51.7464 12.3076H27.7873C26.1342 12.3076 24.7925 13.6861 24.7925 15.3845V46.9753C24.7925 54.0615 19.2699 60.2188 12.3757 59.9941C5.775 59.7788 0.474043 54.083 0.740587 47.1907C1.00114 40.5476 6.70042 35.5262 13.1723 35.3723C16.2301 35.2985 16.7872 35.7789 18.8027 37.0312V6.15381C18.8027 2.75379 21.4861 0 24.7925 0H54.7412C58.0506 0 60.731 2.75379 60.731 6.15381Z" fill="black"/>
</g>
</g>
</g>
</g>
<defs>
<clipPath id="clip0_1519_9">
<rect width="60" height="60" fill="white" transform="translate(0.730957)"/>
</clipPath>
</defs>
</svg>
