<svg width="88" height="86" viewBox="0 0 88 86" fill="none" xmlns="http://www.w3.org/2000/svg">
<g id="mysql_svgrepo.com" clip-path="url(#clip0_1525_107)">
<path id="Vector" d="M88.473 85.844L86.6103 84.0693C85.69 82.8557 84.711 81.7813 83.644 80.8023L83.6257 80.7877C82.5305 79.7928 81.3927 78.8468 80.212 77.9497C79.266 77.2994 77.9656 76.516 76.3107 75.5993C74.9503 74.987 73.887 73.9127 73.3113 72.578L73.2967 72.5413L73.1207 72.4533C73.898 72.3763 74.6093 72.2333 75.2913 72.0317L75.207 72.0537L77.297 71.478C78.1623 71.2067 79.1633 71.0307 80.201 70.9903H80.223C81.3157 70.9463 82.346 70.7703 83.3287 70.4807L83.237 70.5027C83.7112 70.3853 84.1989 70.2521 84.7 70.103C85.2011 69.9539 85.6301 69.8207 85.987 69.7033V69.0837C85.6326 68.5532 85.2036 67.947 84.7 67.265C84.2197 66.6123 83.6807 66.044 83.0757 65.549L83.0573 65.5343C81.5198 64.1752 79.9272 62.8601 78.2797 61.589C76.8277 60.456 75.1813 59.301 73.4727 58.2303L73.2233 58.0837C72.3213 57.4897 71.2873 56.9397 70.1983 56.4887L70.0737 56.4447C68.9786 55.9998 67.8993 55.5121 66.836 54.9817C66.4803 54.8057 66.066 54.6517 65.637 54.5453L65.5967 54.538C65.1677 54.45 64.801 54.23 64.5333 53.9183L64.5297 53.9147C64.0237 53.2473 63.58 52.4883 63.228 51.6817L63.1987 51.6083C62.8442 50.7797 62.4604 49.984 62.0473 49.2213C61.16 47.5053 60.302 45.7612 59.4733 43.989C58.6447 42.2168 57.849 40.4421 57.0863 38.665C56.5559 37.4819 56.0682 36.3 55.6233 35.1193C55.132 33.8213 54.5783 32.7103 53.933 31.6653L53.9807 31.7497C52.3967 29.051 50.8163 26.7483 49.1003 24.5593L49.203 24.6987C47.5053 22.5573 45.7453 20.6433 43.8533 18.8687L43.824 18.843C41.9577 17.0903 39.9483 15.4183 37.84 13.871L37.6603 13.7427C35.4701 12.1513 33.0746 10.5844 30.4737 9.042C29.4287 8.426 28.215 7.92366 26.9353 7.601L26.84 7.579L22.759 6.55966L20.4527 6.38366C19.6851 6.325 18.9163 6.29566 18.1463 6.29566C17.6037 6.00966 17.138 5.66866 16.7273 5.27266C16.324 4.88766 15.8877 4.52466 15.433 4.191L15.3963 4.16533C13.178 2.871 10.6003 1.68666 7.90534 0.755329L7.59367 0.659995C6.886 0.245662 6.03534 0.00366211 5.12967 0.00366211C4.48434 0.00366211 3.86467 0.128329 3.3 0.351995L3.333 0.340995C1.93967 0.894662 0.876336 2.02033 0.418003 3.421L0.407003 3.45766C0.139336 4.08833 -0.0146637 4.818 -0.0146637 5.588C-0.0146637 6.93733 0.462003 8.173 1.25767 9.13733L1.25034 9.12633C2.58011 10.8986 3.59945 12.2919 4.30834 13.3063C4.83878 14.0177 5.38634 14.7571 5.951 15.5247C6.468 16.214 6.92634 17.0023 7.29667 17.8347L7.326 17.9117C7.53134 18.348 7.711 18.8687 7.843 19.404L7.854 19.4627C7.97134 19.9662 8.11922 20.5138 8.29767 21.1053C8.82811 22.4644 9.33045 23.8578 9.80467 25.2853C10.3217 26.8437 10.8937 28.1637 11.5573 29.4213L11.4877 29.2747C11.8421 29.9249 12.1978 30.5604 12.5547 31.1813C12.9116 31.8022 13.2953 32.4084 13.706 33C13.9443 33.3593 14.245 33.6563 14.5897 33.8873L14.6007 33.8947C14.9637 34.1587 15.202 34.573 15.2203 35.0423C14.8023 35.6583 14.52 36.399 14.4247 37.1947L14.421 37.2167C14.2927 38.1443 14.1093 38.9693 13.86 39.765L13.8893 39.655C13.0717 42.097 12.6023 44.913 12.6023 47.8353C12.6023 48.7813 12.65 49.7127 12.749 50.633L12.738 50.5193C12.958 54.032 14.0177 57.2587 15.7153 60.0527L15.664 59.961C16.3863 61.0427 17.16 61.985 18.0143 62.8467C18.6303 63.536 19.525 63.9687 20.5223 63.9687C21.0797 63.9687 21.6077 63.833 22.0697 63.591L22.0513 63.5983C23.3347 63.1363 24.2477 61.963 24.3137 60.566V60.5587C24.4897 58.8207 24.7537 57.266 25.1167 55.748L25.069 55.9937C25.157 55.7627 25.2083 55.4987 25.2083 55.22C25.2083 55.165 25.2047 55.11 25.201 55.055V55.0623C25.1717 54.7959 25.3342 54.5441 25.6887 54.307V54.483C26.0431 55.3117 26.4122 56.1391 26.796 56.9653C27.1798 57.7916 27.5782 58.619 27.9913 59.4477C29.073 61.094 30.2207 62.5313 31.482 63.855L31.471 63.844C32.736 65.208 34.1147 66.4327 35.6033 67.5143L35.684 67.5693C36.4613 68.1633 37.1433 68.805 37.7593 69.5053L37.774 69.52C38.3533 70.202 39.0463 70.763 39.8273 71.1847L39.864 71.203V71.115H40.04C39.897 70.796 39.666 70.5393 39.38 70.3633L39.3727 70.3597C39.083 70.1983 38.8337 70.037 38.599 69.861L38.6173 69.872C38.0869 69.3416 37.5393 68.75 36.9747 68.0973C36.41 67.4447 35.893 66.8238 35.4237 66.2347C34.1819 64.5187 32.9976 62.7257 31.8707 60.8557C30.7438 58.9857 29.6792 57.0851 28.677 55.154C28.2028 54.208 27.7444 53.2327 27.302 52.228C26.8596 51.2233 26.4306 50.248 26.015 49.302C25.8353 48.939 25.7107 48.521 25.663 48.0773V48.059C25.641 47.6373 25.399 47.2743 25.047 47.0873L25.0397 47.0837C24.596 47.839 24.1047 48.4917 23.5437 49.082L23.5473 49.0783C22.9643 49.6907 22.4877 50.413 22.1467 51.205L22.1283 51.2527C21.6113 52.5067 21.2337 53.9623 21.0687 55.484L21.0613 55.5537C20.8853 57.1206 20.7081 58.7314 20.5297 60.3863L20.3537 60.4743L20.2657 60.5623C19.3123 60.368 18.5277 59.7593 18.1023 58.938L18.095 58.9197C17.6501 58.0617 17.2517 57.2183 16.8997 56.3897C15.9903 54.054 15.4257 51.3517 15.3487 48.5283V48.4953C15.3157 48.048 15.301 47.5237 15.301 46.9993C15.301 44.5573 15.686 42.2033 16.3973 39.996L16.3533 40.1573C16.5293 39.5071 16.9131 38.412 17.5047 36.872C18.0962 35.332 18.2148 34.2674 17.8603 33.6783C17.677 33.0733 17.336 32.5637 16.8887 32.175L16.885 32.1713C16.4377 31.7827 16.0307 31.3757 15.6567 30.943L15.6457 30.9283C15.2326 30.3319 14.8341 29.6963 14.4503 29.0217C14.0666 28.347 13.7268 27.6821 13.431 27.027C12.826 25.6263 12.2063 23.87 11.693 22.066L11.6123 21.7397C11.0293 19.668 10.3803 17.9153 9.61034 16.2287L9.70567 16.4633C9.29867 15.5393 8.82567 14.74 8.27567 14.0103L8.29767 14.0397C7.70122 13.2428 7.16834 12.4887 6.699 11.7773C6.10256 11.0098 5.511 10.2703 4.92434 9.559C4.32667 8.83666 3.795 8.02266 3.36234 7.15L3.32934 7.07666C3.15334 6.721 2.99934 6.30666 2.893 5.87766L2.88567 5.83733C2.84534 5.709 2.82334 5.55866 2.82334 5.40833C2.82334 5.10766 2.91134 4.82533 3.06534 4.59066L3.06167 4.598C3.102 4.39266 3.19734 4.213 3.32934 4.06633C3.47234 3.938 3.65567 3.84266 3.85367 3.80233H3.861C4.17267 3.60066 4.55034 3.47966 4.961 3.47966C5.269 3.47966 5.566 3.54933 5.82634 3.674L5.81534 3.67033C6.61834 3.89766 7.26734 4.125 7.90167 4.38533L7.76967 4.33766C8.89167 4.81188 9.92689 5.27022 10.8753 5.71266C11.968 6.23333 12.8993 6.78333 13.7793 7.39566L13.7133 7.35166C14.1876 7.64744 14.6606 7.97255 15.1323 8.327C15.6041 8.68144 16.1064 9.03711 16.6393 9.394H17.8823C18.8283 9.394 19.833 9.43922 20.8963 9.52966C21.9707 9.614 22.9643 9.81566 23.9103 10.131L23.8223 10.1053C25.586 10.6297 27.1003 11.2493 28.5377 11.9937L28.3873 11.924C29.8369 12.6622 31.2119 13.4457 32.5123 14.2743C34.672 15.62 36.5383 16.9987 38.2947 18.5057L38.2323 18.4543C40.0657 20.0237 41.7303 21.6333 43.2923 23.3347L43.329 23.3787C44.8543 25.0433 46.31 26.851 47.641 28.7467L47.7547 28.919C48.9793 30.6497 50.215 32.6517 51.326 34.727L51.48 35.0387C51.777 35.6033 52.0777 36.2963 52.338 37.004L52.3783 37.125C52.6154 37.8046 52.8807 38.5012 53.174 39.215C53.8242 40.6939 54.5209 42.1862 55.264 43.692C56.0071 45.1978 56.7038 46.662 57.354 48.0847L59.3047 52.3417C59.9903 53.8303 60.7567 55.1137 61.6477 56.298L61.6073 56.243C62.3517 57.0387 63.3453 57.596 64.46 57.7903L64.4893 57.794C65.8387 58.1313 66.9753 58.5127 68.0753 58.9637L67.903 58.9013C68.4273 59.1397 69.102 59.3927 69.795 59.6163L69.9417 59.6567C70.719 59.895 71.3937 60.2103 72.0133 60.6063L71.9803 60.588C73.1793 61.259 74.195 61.919 75.163 62.6377L75.086 62.5827C76.0907 63.3209 77.0953 64.0176 78.1 64.6727C78.5742 65.0271 79.3699 65.5441 80.487 66.2237C81.6041 66.9032 82.1957 67.5388 82.2617 68.1303C81.8437 68.1157 81.3487 68.1047 80.8537 68.1047C79.0497 68.1047 77.275 68.222 75.537 68.4493L75.7423 68.4273C73.777 68.6913 71.995 69.1717 70.3193 69.8573L70.466 69.806C70.0517 69.9857 69.5567 70.1507 69.0433 70.279L68.9737 70.2937C68.453 70.3707 68.0497 70.7887 67.9983 71.3093C68.222 71.588 68.4017 71.9143 68.5227 72.2663L68.53 72.2883C68.6547 72.6623 68.805 72.985 68.9883 73.2857L68.9773 73.2637C69.4137 74.0373 69.883 74.7047 70.411 75.3207L70.3963 75.3023C70.9133 75.9403 71.4963 76.494 72.1417 76.967L72.1673 76.9853C72.7638 77.4596 73.3847 77.9472 74.03 78.4483C74.6203 78.9103 75.2877 79.365 75.9807 79.7757L76.0687 79.8233C77.11 80.4613 78.32 81.07 79.5813 81.5797L79.75 81.6383C81.1213 82.1883 82.2983 82.8263 83.391 83.5853L83.3323 83.545C84.0437 83.9581 84.7525 84.4164 85.459 84.92C86.1654 85.4236 86.845 85.9112 87.4977 86.383C87.7653 86.647 88 86.9403 88.198 87.2593L88.209 87.2777C88.5427 87.659 89.0047 87.9193 89.529 87.9853H89.54V87.8093C89.2173 87.5637 88.979 87.2227 88.8653 86.8303L88.8617 86.8157C88.77 86.4417 88.6343 86.1153 88.451 85.8147L88.4583 85.8293L88.473 85.844ZM20.361 15.4257C19.8868 15.4257 19.4431 15.4403 19.03 15.4697C18.6083 15.499 18.216 15.576 17.8457 15.7007L17.8787 15.6897V15.7777H18.0547C18.2918 16.1321 18.59 16.5306 18.9493 16.973C19.3087 17.4154 19.6338 17.8444 19.9247 18.26L21.3437 21.186L21.5197 21.098C21.934 20.7973 22.253 20.394 22.4437 19.921L22.451 19.9027C22.6417 19.393 22.7517 18.799 22.7517 18.183C22.7517 18.117 22.7517 18.051 22.748 17.985V17.996C22.583 17.8347 22.4473 17.644 22.352 17.4313L22.3483 17.4203L22.0513 16.753C21.857 16.445 21.5857 16.203 21.2667 16.049L21.2557 16.0453C20.911 15.8803 20.6177 15.6713 20.361 15.4257Z" fill="black"/>
</g>
<defs>
<clipPath id="clip0_1525_107">
<rect width="88" height="88" fill="white"/>
</clipPath>
</defs>
</svg>
