<svg width="88" height="86" viewBox="0 0 88 86" fill="none" xmlns="http://www.w3.org/2000/svg">
<g id="react_svgrepo.com" clip-path="url(#clip0_1525_91)">
<path id="Vector" d="M44 37.07C45.353 37.0701 46.6757 37.4704 47.8016 38.2207C48.9275 38.9709 49.8063 40.0375 50.3274 41.2861C50.8484 42.5347 50.9884 43.9096 50.7298 45.2376C50.4711 46.5656 49.8253 47.7874 48.8737 48.7492C47.9221 49.711 46.7072 50.3697 45.382 50.6425C44.0568 50.9153 42.6806 50.79 41.4265 50.2822C40.1724 49.7745 39.0965 48.9071 38.3343 47.7892C37.5722 46.6713 37.1578 45.3529 37.1433 44C37.1385 43.0948 37.312 42.1974 37.654 41.3592C37.9959 40.521 38.4997 39.7584 39.1364 39.1149C39.7731 38.4714 40.5303 37.9596 41.3648 37.6087C42.1993 37.2579 43.0947 37.0748 44 37.07ZM27.0233 73.3333C29.3333 74.7267 34.3566 72.6 40.2233 67.1C38.2625 64.8718 36.4146 62.5466 34.6866 60.1333C31.7292 59.8021 28.7916 59.3125 25.8866 58.6667C24.0166 66.5133 24.7133 71.9033 27.0233 73.3333ZM29.6266 52.2867L28.5633 50.4167C28.1488 51.4466 27.7938 52.4994 27.5 53.57C28.49 53.79 29.59 53.9733 30.7266 54.1567L29.6266 52.2867ZM53.6066 49.5L56.5766 44L53.6066 38.5C52.5066 36.5567 51.3333 34.8333 50.27 33.11C48.29 33 46.2 33 44 33C41.8 33 39.71 33 37.73 33C36.6666 34.7233 35.4933 36.4467 34.3933 38.39L31.4233 44L34.3933 49.5C35.4933 51.4433 36.6666 53.1667 37.73 54.89C39.71 54.89 41.8 54.89 44 54.89C46.2 54.89 48.29 54.89 50.27 54.89C51.3333 53.1667 52.5066 51.4433 53.6066 49.5ZM44 24.86C43.3033 25.6667 42.57 26.51 41.8366 27.5H46.1633C45.43 26.51 44.6966 25.6667 44 24.86ZM44 63.14C44.6966 62.3333 45.43 61.49 46.1633 60.5H41.8366C42.57 61.49 43.3033 62.3333 44 63.14ZM60.94 14.6667C58.6666 13.2733 53.6066 15.4 47.7766 20.9C49.7375 23.1282 51.5853 25.4534 53.3133 27.8667C56.2681 28.1494 59.2056 28.5901 62.1133 29.1867C63.9833 21.34 63.2866 15.95 60.94 14.52M58.3733 35.5667L59.4366 37.4367C59.8511 36.4068 60.2062 35.3539 60.5 34.2833C59.51 34.0633 58.41 33.88 57.2733 33.6967L58.3733 35.5667ZM63.69 9.9C69.08 12.98 69.6666 21.0833 67.3566 30.5433C76.67 33.2933 83.38 37.8767 83.38 44.0367C83.38 50.1967 76.67 54.78 67.3566 57.53C69.63 66.99 69.0433 75.0933 63.69 78.1733C58.3366 81.2533 51.04 77.7333 44 71.0233C36.96 77.7333 29.6633 81.2533 24.2733 78.1733C18.8833 75.0933 18.3333 67.1733 20.6066 57.53C11.2933 54.78 4.58331 50.1967 4.58331 44.0367C4.58331 37.8767 11.2933 33.2567 20.6066 30.5067C18.3333 21.0467 18.92 12.9433 24.2733 9.86334C29.6266 6.78334 36.96 10.3033 44 17.0133C51.04 10.3033 58.3366 6.78334 63.69 9.86334M62.6266 44C63.9001 46.6992 65.0262 49.4655 66 52.2867C73.7 49.9767 78.0266 46.6767 78.0266 44C78.0266 41.3233 73.59 38.0233 66 35.7133C65.0262 38.5345 63.9001 41.3008 62.6266 44ZM25.3733 44C24.0999 41.3008 22.9738 38.5345 22 35.7133C14.3 38.0233 9.97331 41.3233 9.97331 44C9.97331 46.6767 14.41 49.9767 22 52.2867C22.9738 49.4655 24.0999 46.6992 25.3733 44ZM58.3733 52.2867L57.2733 54.1567C58.41 54.1567 59.51 53.79 60.5 53.57C60.2062 52.4994 59.8511 51.4466 59.4366 50.4167L58.3733 52.2867ZM47.6666 67.1C53.4966 72.6 58.6666 74.7267 60.83 73.3333C62.9933 71.94 63.8733 66.66 62.0033 58.6667C59.0956 59.2633 56.1581 59.7039 53.2033 59.9867C51.4794 62.45 49.6314 64.8241 47.6666 67.1ZM29.6266 35.7133L30.7266 33.8433C29.59 33.8433 28.49 34.21 27.5 34.43C27.7938 35.5006 28.1488 36.5534 28.5633 37.5833L29.6266 35.7133ZM40.3333 20.9C34.3933 15.4 29.3333 13.2733 27.0233 14.6667C24.7133 16.06 24.0166 21.34 25.8866 29.3333C28.7943 28.7367 31.7319 28.2961 34.6866 28.0133C36.4463 25.5475 38.331 23.1733 40.3333 20.9Z" fill="black"/>
</g>
<defs>
<clipPath id="clip0_1525_91">
<rect width="88" height="88" fill="white"/>
</clipPath>
</defs>
</svg>
