<svg width="88" height="86" viewBox="0 0 88 86" fill="none" xmlns="http://www.w3.org/2000/svg">
<g id="typescript_svgrepo.com" clip-path="url(#clip0_1525_96)">
<path id="Vector" d="M0 44V88H88V0H0V44ZM70.9115 40.491C73.1472 41.0493 74.8495 42.053 76.4252 43.67C77.2282 44.528 78.43 46.1038 78.5317 46.4915C78.5592 46.607 74.7367 49.17 72.4157 50.6027C72.3305 50.6605 71.9867 50.303 71.6127 49.742C70.4825 48.0947 69.2917 47.3797 67.474 47.2505C64.8092 47.0772 63.0905 48.4688 63.1043 50.8035C63.0905 51.3755 63.2198 51.9502 63.4755 52.4507C64.064 53.669 65.1668 54.3978 68.574 55.8745C74.877 58.5805 77.5693 60.3708 79.244 62.9062C81.1195 65.7415 81.5348 70.268 80.2753 73.6478C78.8727 77.2998 75.405 79.7913 70.5348 80.608C69.0305 80.8802 65.45 80.8363 63.8302 80.5365C60.2938 79.9067 56.9415 78.1577 54.879 75.867C54.0622 74.9787 52.4865 72.644 52.5882 72.4873C52.6322 72.4295 52.9898 72.2012 53.3913 71.9702C53.7928 71.7393 55.2668 70.8812 56.6583 70.0782L59.1937 68.6042L59.7245 69.3907C60.4697 70.521 62.0867 72.0692 63.063 72.5835C65.8708 74.074 69.7235 73.8595 71.6292 72.1545C72.402 71.511 72.8338 70.521 72.776 69.52C72.776 68.5025 72.6468 68.046 72.116 67.2842C71.4285 66.3107 70.0397 65.4803 66.0715 63.7615C61.5312 61.798 59.5678 60.5963 57.794 58.663C56.6775 57.387 55.847 55.8855 55.374 54.2658C55.044 53.02 54.9588 49.896 55.2173 48.6502C56.1495 44.253 59.4715 41.2033 64.24 40.3013C65.7883 40.0015 69.3963 40.1143 70.9143 40.4883L70.9115 40.491ZM50.259 44.1732L50.2865 47.7675H38.8273V80.3248H30.7202V47.7675H19.2775V44.2448C19.2775 42.2813 19.3215 40.6505 19.3765 40.6065C19.4205 40.5487 26.3808 40.5212 34.8315 40.535L50.215 40.579L50.259 44.1732Z" fill="black"/>
</g>
<defs>
<clipPath id="clip0_1525_96">
<rect width="88" height="88" fill="white"/>
</clipPath>
</defs>
</svg>
